<?xml version="1.0" encoding="UTF-8"?>
<svg version="1.1" xmlns="http://www.w3.org/2000/svg" width="606" height="236">
<path d="M0 0 C3.55025019 0.96825005 4.26884484 1.17976561 6.4375 3.9375 C7.56843696 6.28667368 8.59593908 8.60089335 9.57421875 11.01171875 C9.85852249 11.6955513 10.14282623 12.37938385 10.43574524 13.0839386 C11.33917825 15.26146733 12.232195 17.44309513 13.125 19.625 C13.73694739 21.1051002 14.34956999 22.58492144 14.96289062 24.06445312 C16.46227154 27.68561561 17.95232721 31.31048841 19.4375 34.9375 C19.45208252 33.94830566 19.46666504 32.95911133 19.48168945 31.93994141 C19.5395897 28.27567081 19.61682152 24.61202015 19.69995117 20.94824219 C19.7332398 19.36143035 19.76125947 17.77449897 19.78393555 16.1875 C19.81741078 13.90833516 19.8697186 11.63026959 19.92578125 9.3515625 C19.93536613 8.28429428 19.93536613 8.28429428 19.94514465 7.19546509 C20.00512695 5.19384766 20.00512695 5.19384766 20.4375 1.9375 C24.50599409 -0.77482939 26.60226784 -0.36949887 31.4375 -0.0625 C34.30935266 2.80935266 33.69131452 4.81241645 33.69628906 8.83398438 C33.6997937 9.54307449 33.70329834 10.25216461 33.70690918 10.98274231 C33.71572921 13.33234375 33.70987652 15.68164537 33.703125 18.03125 C33.70447158 19.66027891 33.70641204 21.28930743 33.70892334 22.91833496 C33.71187497 26.33475567 33.70757577 29.75107189 33.69824219 33.16748047 C33.68684758 37.55267401 33.69340686 41.93762276 33.70538712 46.32280731 C33.71260471 49.68733575 33.71031826 53.05180589 33.70513153 56.41633606 C33.70379475 58.03351368 33.70544374 59.65069655 33.71009064 61.26786804 C33.71515428 63.52572709 33.70744826 65.78318644 33.69628906 68.04101562 C33.69469788 69.32737915 33.69310669 70.61374268 33.69146729 71.93908691 C33.4375 74.9375 33.4375 74.9375 31.4375 76.9375 C29.37890625 77.30859375 29.37890625 77.30859375 27 77.375 C25.82630859 77.43494141 25.82630859 77.43494141 24.62890625 77.49609375 C22.4375 76.9375 22.4375 76.9375 20.99658203 74.85693359 C19.22401945 71.53775049 17.73311996 68.14276554 16.30078125 64.66796875 C16.01647751 63.98696609 15.73217377 63.30596344 15.43925476 62.60432434 C14.53919334 60.44604526 13.64452283 58.28557965 12.75 56.125 C12.13772557 54.65414872 11.52509897 53.18344399 10.91210938 51.71289062 C9.4164932 48.12277637 7.92570507 44.53069234 6.4375 40.9375 C6.41244385 41.99251709 6.3873877 43.04753418 6.36157227 44.13452148 C6.26765891 48.03520628 6.16739966 51.93570625 6.06518555 55.83618164 C6.02177561 57.52689299 5.98010511 59.21764991 5.94018555 60.90844727 C5.88262906 63.33363606 5.81889351 65.75859415 5.75390625 68.18359375 C5.72883751 69.32422523 5.72883751 69.32422523 5.70326233 70.48789978 C5.55137171 75.82362829 5.55137171 75.82362829 4.4375 76.9375 C2.79519636 77.0620486 1.14697724 77.11318524 -0.5 77.125 C-1.39589844 77.13917969 -2.29179687 77.15335937 -3.21484375 77.16796875 C-5.5625 76.9375 -5.5625 76.9375 -7.5625 74.9375 C-7.82992554 72.0284729 -7.82992554 72.0284729 -7.85302734 68.25634766 C-7.85974457 67.56997726 -7.86646179 66.88360687 -7.87338257 66.17643738 C-7.89242142 63.90140596 -7.89628981 61.62666868 -7.8984375 59.3515625 C-7.90486191 57.77216469 -7.91158999 56.19276808 -7.91860962 54.6133728 C-7.93059749 51.29951214 -7.93428896 47.98575583 -7.93310547 44.671875 C-7.93290232 40.42569144 -7.96019313 36.18017749 -7.99464989 31.9341526 C-8.01689116 28.6707553 -8.02094386 25.40751975 -8.01988602 22.14405441 C-8.0222466 20.57874623 -8.03109592 19.01343389 -8.04655075 17.44820023 C-8.06615379 15.2574713 -8.06039654 13.06819384 -8.04833984 10.87744141 C-8.05118988 9.63104889 -8.05403992 8.38465637 -8.05697632 7.10049438 C-7.5625 3.9375 -7.5625 3.9375 -5.75479126 1.49984741 C-3.5625 -0.0625 -3.5625 -0.0625 0 0 Z " fill="#7D1E7D" transform="translate(409.5625,73.0625)"/>
<path d="M0 0 C0.93457031 0.09925781 1.86914062 0.19851562 2.83203125 0.30078125 C5.1875 0.6875 5.1875 0.6875 7.1875 1.6875 C7.84561157 4.31095886 7.84561157 4.31095886 8.42431641 7.85620117 C8.53189774 8.50019867 8.63947906 9.14419617 8.75032043 9.80770874 C9.10535133 11.94728596 9.44740216 14.08871895 9.7890625 16.23046875 C10.03218437 17.71692751 10.27595737 19.20327992 10.52035522 20.68952942 C11.03182522 23.81175828 11.53722548 26.93488987 12.03808594 30.05883789 C12.67883524 34.05391942 13.33152744 38.0469292 13.98845863 42.03937817 C14.49327632 45.11262481 14.99313373 48.18666153 15.49137497 51.26098061 C15.73021174 52.73270114 15.97023239 54.20423007 16.21147537 55.67555809 C16.54894028 57.74024099 16.88006994 59.80584369 17.20947266 61.87182617 C17.39885406 63.0457341 17.58823547 64.21964203 17.78335571 65.42912292 C18.17697422 68.60263685 18.48115425 71.49967356 18.1875 74.6875 C14.11900591 77.39982939 12.02273216 76.99449887 7.1875 76.6875 C4.46643306 73.96643306 4.58094428 71.83973689 4.0625 68.0625 C3.89492188 66.87398438 3.72734375 65.68546875 3.5546875 64.4609375 C3.43351563 63.54570312 3.31234375 62.63046875 3.1875 61.6875 C-0.7725 61.6875 -4.7325 61.6875 -8.8125 61.6875 C-8.93367187 62.60273438 -9.05484375 63.51796875 -9.1796875 64.4609375 C-9.34726562 65.64945312 -9.51484375 66.83796875 -9.6875 68.0625 C-9.84992187 69.24585938 -10.01234375 70.42921875 -10.1796875 71.6484375 C-10.8125 74.6875 -10.8125 74.6875 -12.8125 76.6875 C-20.11684783 77.15126812 -20.11684783 77.15126812 -23.8125 74.6875 C-23.26485727 65.43818806 -22.09287066 56.42130278 -20.52734375 47.29296875 C-20.3040686 45.96641841 -20.08130534 44.63978182 -19.85902405 43.31306458 C-19.28048752 39.86821839 -18.69513669 36.42456624 -18.10821533 32.98114014 C-17.5073663 29.4484263 -16.91316741 25.91459442 -16.31835938 22.38085938 C-15.15613875 15.48198285 -13.98669436 8.58434842 -12.8125 1.6875 C-8.24311923 0.30856647 -4.76270607 -0.55287357 0 0 Z M-3.8125 28.6875 C-4.8025 34.9575 -5.7925 41.2275 -6.8125 47.6875 C-4.1725 47.6875 -1.5325 47.6875 1.1875 47.6875 C0.1975 41.4175 -0.7925 35.1475 -1.8125 28.6875 C-2.4725 28.6875 -3.1325 28.6875 -3.8125 28.6875 Z " fill="#7D1D7D" transform="translate(526.8125,73.3125)"/>
<path d="M0 0 C0.32613281 0.78503906 0.65226562 1.57007812 0.98828125 2.37890625 C1.64376953 3.95478516 1.64376953 3.95478516 2.3125 5.5625 C2.95638672 7.11130859 2.95638672 7.11130859 3.61328125 8.69140625 C5.05695973 12.13590109 6.52462078 15.56898616 8 19 C8.20681396 18.45996338 8.41362793 17.91992676 8.62670898 17.36352539 C9.56088784 14.92878405 10.49913747 12.49563181 11.4375 10.0625 C11.76298828 9.21236328 12.08847656 8.36222656 12.42382812 7.48632812 C12.73642578 6.67744141 13.04902344 5.86855469 13.37109375 5.03515625 C13.65911865 4.2862915 13.94714355 3.53742676 14.24389648 2.76586914 C15 1 15 1 16 0 C23.29269017 0.35865689 23.29269017 0.35865689 26.26171875 3.05078125 C26.83535156 3.69402344 27.40898437 4.33726563 28 5 C27.12916622 7.66808647 26.25321062 10.33434074 25.375 13 C24.97873413 14.21719727 24.97873413 14.21719727 24.57446289 15.45898438 C23.23773973 19.50894431 21.83967658 23.48469057 20.16015625 27.40625 C19.87156738 28.0971875 19.58297852 28.788125 19.28564453 29.5 C18.73763909 30.79224541 18.16580054 32.0747547 17.56591797 33.34375 C15.10923949 39.22330545 16.85477587 43.37718448 19 49 C19.33765381 49.92200195 19.67530762 50.84400391 20.02319336 51.79394531 C21.44723199 55.64718755 22.90539454 59.48634277 24.390625 63.31640625 C24.74125 64.25097656 25.091875 65.18554688 25.453125 66.1484375 C25.77442383 66.98552246 26.09572266 67.82260742 26.42675781 68.68505859 C27.06912933 71.27916708 27.05308572 72.55351008 26 75 C21.7975546 77.80163026 18.99895065 77.14489712 14 77 C12.02 71.72 10.04 66.44 8 61 C7.21625 62.8975 6.4325 64.795 5.625 66.75 C4.18760892 70.22999945 2.73599325 73.6578074 1 77 C-6.38461538 77.36923077 -6.38461538 77.36923077 -9.5 75.5 C-9.995 75.005 -10.49 74.51 -11 74 C-10.37248293 65.9120022 -7.00411335 58.64551164 -4.0625 51.16015625 C-3.45535156 49.54947266 -3.45535156 49.54947266 -2.8359375 47.90625 C-2.46001465 46.94009766 -2.0840918 45.97394531 -1.69677734 44.97851562 C-0.32685364 39.12249978 -2.15942733 34.04618375 -4.28515625 28.5859375 C-4.95708008 26.82636719 -4.95708008 26.82636719 -5.64257812 25.03125 C-6.59234108 22.58564304 -7.54286702 20.14033225 -8.49414062 17.6953125 C-9.16413086 15.93960938 -9.16413086 15.93960938 -9.84765625 14.1484375 C-10.26023682 13.08802246 -10.67281738 12.02760742 -11.09790039 10.93505859 C-11.9701804 8.09702063 -12.18719073 5.94409231 -12 3 C-7.70682305 0.54675603 -4.90706652 -0.16494341 0 0 Z " fill="#7D1D7D" transform="translate(265,73)"/>
<path d="M0 0 C1.31581055 -0.0309375 1.31581055 -0.0309375 2.65820312 -0.0625 C9.66577799 -0.10443014 14.438412 0.93826691 19.9375 5.5625 C26.51546745 13.41951668 26.8029528 21.37908399 26.1875 31.25 C25.15220494 37.56529988 21.9547338 40.88671281 17.125 44.90234375 C13.19826241 47.63364308 9.640713 47.35507535 5 47.3125 C3.72769531 47.30347656 2.45539063 47.29445312 1.14453125 47.28515625 C-0.31919922 47.26775391 -0.31919922 47.26775391 -1.8125 47.25 C-1.80726318 48.12325928 -1.80202637 48.99651855 -1.79663086 49.89624023 C-1.77962249 53.12589273 -1.76706631 56.35552245 -1.75756836 59.58520508 C-1.7525292 60.98495228 -1.74569784 62.3846942 -1.73706055 63.78442383 C-1.7249768 65.79245777 -1.71980193 67.80052957 -1.71484375 69.80859375 C-1.70960693 71.01829834 -1.70437012 72.22800293 -1.69897461 73.47436523 C-1.8125 76.25 -1.8125 76.25 -2.8125 77.25 C-4.64365883 77.34851171 -6.47869933 77.37972629 -8.3125 77.375 C-9.3128125 77.37757813 -10.313125 77.38015625 -11.34375 77.3828125 C-13.8125 77.25 -13.8125 77.25 -14.8125 76.25 C-14.91217534 73.99080007 -14.94049831 71.72843827 -14.94189453 69.46704102 C-14.94364685 68.75809692 -14.94539917 68.04915283 -14.94720459 67.31872559 C-14.95162336 64.96376126 -14.94868473 62.60887141 -14.9453125 60.25390625 C-14.94598561 58.62344854 -14.94695569 56.99299093 -14.94821167 55.36253357 C-14.94968874 51.94016569 -14.94753409 48.51782385 -14.94287109 45.09545898 C-14.9371783 40.70245314 -14.9404499 36.30950845 -14.94644356 31.91650486 C-14.95005278 28.54769935 -14.94890884 25.1789084 -14.94631577 21.81010246 C-14.94564726 20.19013398 -14.94647225 18.57016418 -14.94879532 16.95019722 C-14.95132725 14.68754693 -14.94747339 12.42499635 -14.94189453 10.16235352 C-14.94109894 8.87297379 -14.94030334 7.58359406 -14.93948364 6.25514221 C-14.8125 3.25 -14.8125 3.25 -13.8125 1.25 C-9.35974984 -0.28168254 -4.65197552 0.02698753 0 0 Z M-1.8125 13.25 C-1.8125 20.18 -1.8125 27.11 -1.8125 34.25 C-0.059375 34.3325 1.69375 34.415 3.5 34.5 C4.97919922 34.56960937 4.97919922 34.56960937 6.48828125 34.640625 C9.2915859 34.51340062 9.2915859 34.51340062 10.98046875 32.421875 C13.2849082 28.27537553 13.42979205 24.934313 13.1875 20.25 C12.07191117 16.38834634 11.61504276 15.53502851 8.1875 13.25 C4.8875 13.25 1.5875 13.25 -1.8125 13.25 Z " fill="#7E1D7E" transform="translate(319.8125,72.75)"/>
<path d="M0 0 C3.35233474 3.44055407 5.73975915 6.81397688 6.3125 11.625 C6.209375 12.40875 6.10625 13.1925 6 14 C2.31884463 16.45410358 0.34706402 16.23287843 -4 16 C-4.99 15.67 -5.98 15.34 -7 15 C-7.33 14.01 -7.66 13.02 -8 12 C-10.35367713 11.3121764 -10.35367713 11.3121764 -13 11 C-13.99 11.66 -14.98 12.32 -16 13 C-16.60149023 16.3416124 -16.63282215 18.78065975 -15.0390625 21.8515625 C-11.57740157 26.71389549 -7.25192198 30.71275439 -2.98168945 34.84692383 C2.9179329 40.69566105 6.60969462 46.92603003 7.25 55.25 C6.91706655 60.2440018 6.04280139 64.73403543 2.60546875 68.546875 C-3.20821282 73.5510566 -7.56341259 74.45882187 -15.08984375 74.3125 C-20.48197143 73.73347958 -23.01709871 70.96056262 -26.75 67.3125 C-29.55388998 63.76453566 -30.84671241 59.50845858 -31 55 C-28.50882422 52.50882422 -27.51144551 52.64859702 -24.0625 52.5625 C-21.35546875 52.60546875 -21.35546875 52.60546875 -19 53 C-16.81817659 55.43850852 -16 56.7321149 -16 60 C-11.85906302 60.20970559 -11.85906302 60.20970559 -8 59 C-7.26441707 54.58650243 -7.11846493 52.2673316 -9.72265625 48.5234375 C-12.7463079 45.17304476 -15.90919753 42.02117678 -19.203125 38.9375 C-25.17086761 33.2886444 -29.51208351 27.13593648 -30.9375 18.875 C-31.05141365 11.81235385 -29.53072179 6.56631535 -25 1 C-17.45973205 -4.46669426 -8.06644825 -4.51721102 0 0 Z " fill="#7D1D7D" transform="translate(486,76)"/>
<path d="M0 0 C1.21171875 0.00322266 2.4234375 0.00644531 3.671875 0.00976562 C4.94289063 0.01814453 6.21390625 0.02652344 7.5234375 0.03515625 C8.8021875 0.03966797 10.0809375 0.04417969 11.3984375 0.04882812 C14.56515042 0.06064422 17.73177106 0.0771181 20.8984375 0.09765625 C23.46667217 4.84845212 22.67769903 7.79867787 21.8984375 13.09765625 C16.2884375 13.09765625 10.6784375 13.09765625 4.8984375 13.09765625 C4.8984375 19.69765625 4.8984375 26.29765625 4.8984375 33.09765625 C8.8584375 33.09765625 12.8184375 33.09765625 16.8984375 33.09765625 C18.07516948 35.45112021 18.06467616 36.97825955 18.0859375 39.59765625 C18.10011719 40.39171875 18.11429687 41.18578125 18.12890625 42.00390625 C17.8984375 44.09765625 17.8984375 44.09765625 15.8984375 46.09765625 C12.21819145 46.373951 8.59349193 46.18358775 4.8984375 46.09765625 C4.8984375 52.03765625 4.8984375 57.97765625 4.8984375 64.09765625 C10.07444891 63.97909855 10.07444891 63.97909855 15.24951172 63.82739258 C17.1345135 63.80548491 19.01920513 63.94866848 20.8984375 64.09765625 C23.35254108 67.77881162 23.13131593 69.75059223 22.8984375 74.09765625 C22.5684375 75.08765625 22.2384375 76.07765625 21.8984375 77.09765625 C11.9984375 77.09765625 2.0984375 77.09765625 -8.1015625 77.09765625 C-9.06044333 73.26213294 -9.2283675 70.2885232 -9.23095703 66.35717773 C-9.23270935 65.68841614 -9.23446167 65.01965454 -9.23626709 64.33062744 C-9.24065772 62.12664167 -9.23775778 59.92273655 -9.234375 57.71875 C-9.23504876 56.18465662 -9.23601939 54.65056335 -9.23727417 53.11647034 C-9.23874729 49.90454083 -9.23660865 46.69263916 -9.23193359 43.48071289 C-9.22623172 39.36253619 -9.22952064 35.24442459 -9.23550606 31.12625027 C-9.23911795 27.9598593 -9.23797027 24.79348379 -9.23537827 21.62709236 C-9.23471099 20.10842951 -9.23553048 18.58976526 -9.23785782 17.07110405 C-9.24039515 14.95027821 -9.23652869 12.82955819 -9.23095703 10.70874023 C-9.23016144 9.5016893 -9.22936584 8.29463837 -9.22854614 7.05101013 C-9.1015625 4.09765625 -9.1015625 4.09765625 -8.1015625 1.09765625 C-5.33538687 -0.28543156 -3.0913825 -0.01444571 0 0 Z " fill="#7E1C7C" transform="translate(365.1015625,72.90234375)"/>
<path d="M0 0 C1.20269531 -0.00257812 2.40539062 -0.00515625 3.64453125 -0.0078125 C4.90652344 -0.00007813 6.16851562 0.00765625 7.46875 0.015625 C8.73074219 0.00789063 9.99273437 0.00015625 11.29296875 -0.0078125 C12.49566406 -0.00523438 13.69835937 -0.00265625 14.9375 0 C16.04544922 0.00225586 17.15339844 0.00451172 18.29492188 0.00683594 C20.96875 0.265625 20.96875 0.265625 22.96875 2.265625 C23.19921875 4.61328125 23.19921875 4.61328125 23.15625 7.328125 C23.14980469 8.22660156 23.14335937 9.12507813 23.13671875 10.05078125 C22.96875 12.265625 22.96875 12.265625 21.96875 13.265625 C19.2700595 13.33887936 16.60372444 13.35784851 13.90625 13.328125 C11.286875 13.3075 8.6675 13.286875 5.96875 13.265625 C5.96875 19.865625 5.96875 26.465625 5.96875 33.265625 C9.92875 33.265625 13.88875 33.265625 17.96875 33.265625 C19.5322848 36.39269459 19.36833487 39.84544943 18.96875 43.265625 C18.30875 44.255625 17.64875 45.245625 16.96875 46.265625 C13.27281029 46.68183443 9.69755913 46.39569974 5.96875 46.265625 C5.96875 52.205625 5.96875 58.145625 5.96875 64.265625 C11.24875 64.265625 16.52875 64.265625 21.96875 64.265625 C24.01555339 69.38263348 24.06456871 71.0853911 22.96875 76.265625 C21.96875 77.265625 21.96875 77.265625 19.19311523 77.37915039 C17.98341064 77.37391357 16.77370605 77.36867676 15.52734375 77.36328125 C14.22216797 77.36005859 12.91699219 77.35683594 11.57226562 77.35351562 C10.1835931 77.34515901 8.79492123 77.33669405 7.40625 77.328125 C6.01367344 77.32311166 4.62109519 77.31854847 3.22851562 77.31445312 C-0.1914487 77.30261934 -3.61132844 77.2861338 -7.03125 77.265625 C-8.50805054 74.31202391 -8.16674508 71.66573692 -8.17651367 68.36914062 C-8.17987228 67.66005051 -8.1832309 66.95096039 -8.18669128 66.22038269 C-8.19620897 63.87086243 -8.19814467 61.52141335 -8.19921875 59.171875 C-8.20243031 57.54284638 -8.2057943 55.91381805 -8.20930481 54.28479004 C-8.2152978 50.8684014 -8.21714449 47.45203806 -8.21655273 44.03564453 C-8.216451 39.65046897 -8.2301143 35.26545492 -8.24732494 30.88031769 C-8.25842288 27.51580047 -8.26047264 24.1513226 -8.25994301 20.78678894 C-8.26112604 19.16960594 -8.26556578 17.55242201 -8.27327538 15.93525696 C-8.28303279 13.67742463 -8.28021451 11.41994696 -8.27416992 9.16210938 C-8.27630745 7.23256409 -8.27630745 7.23256409 -8.27848816 5.26403809 C-7.81333305 -0.37719126 -4.91110889 0.00999935 0 0 Z " fill="#7C1D7C" transform="translate(217.03125,72.734375)"/>
<path d="M0 0 C0.928125 0.38929687 1.85625 0.77859375 2.8125 1.1796875 C15.18388065 7.11935605 25.50633577 18.44612856 30.20703125 31.30078125 C35.51832682 47.87277414 35.20123809 63.7710203 27.625 79.625 C19.44947221 93.22349094 7.51434172 101.84125741 -7.1796875 107.1484375 C-19.52881951 109.90110701 -35.65277476 109.92029143 -47 104 C-47.91265625 103.525625 -48.8253125 103.05125 -49.765625 102.5625 C-63.9333927 94.33094782 -73.25976673 82.54517677 -78 67 C-81.72676112 52.85805217 -79.23989669 37.16729339 -72.8125 24.3125 C-64.68119707 10.76032845 -52.30053862 1.36888442 -37.265625 -3.11328125 C-25.12585665 -5.99484954 -11.38338502 -4.91836473 0 0 Z M-49 6 C-49.77859375 6.43183594 -50.5571875 6.86367187 -51.359375 7.30859375 C-63.77928968 14.86761079 -71.31386882 26.64770966 -74.875 40.5625 C-77.84021285 55.38856423 -75.12303856 69.18549224 -67 82 C-57.58024256 94.39201101 -45.53356407 102.39966769 -30 105 C-14.05493493 106.02363381 0.14186919 102.26250505 12.375 91.625 C23.56803221 80.87968908 29.87279259 68.20551311 30.25 52.5625 C29.85371116 37.67038243 24.82743342 24.96456687 14.3828125 14.18359375 C-3.11697014 -1.8530923 -27.92869851 -5.89402081 -49 6 Z " fill="#114C84" transform="translate(150,60)"/>
<path d="M0 0 C9.40456893 7.42687435 16.20928602 19.82001086 17.93359375 31.62890625 C18.96251842 47.97362771 15.97899183 62.0879543 4.97265625 74.9140625 C-5.7014655 85.21121713 -19.28085028 90.02562118 -33.85742188 90.00024414 C-48.50405469 89.59056001 -60.72637058 82.97651037 -70.734375 72.54296875 C-80.57136484 60.2508508 -83.52228837 46.01394057 -82.06640625 30.62890625 C-79.26678253 16.71032244 -70.95243102 4.72135732 -59.19140625 -3.18359375 C-39.84832866 -14.3638926 -18.25973912 -12.1156303 0 0 Z M-68.06640625 9.62890625 C-76.61077128 21.63407029 -79.33763922 33.11685349 -78.06640625 47.62890625 C-75.38355117 60.60361784 -68.63041037 70.74485597 -58.06640625 78.62890625 C-46.46762342 85.81244245 -33.79506631 87.40451962 -20.4921875 84.9765625 C-8.15781229 81.57548626 1.84545543 74.08324295 8.46875 63.078125 C14.29963142 51.87535282 15.85435294 39.75251241 13.24609375 27.36328125 C12.31680067 24.65284311 11.23722097 22.179127 9.93359375 19.62890625 C9.52109375 18.78070313 9.10859375 17.9325 8.68359375 17.05859375 C2.52612541 5.61829745 -7.03910423 -0.95740494 -19.06640625 -5.37109375 C-37.04766647 -10.15831238 -55.7224852 -3.99896279 -68.06640625 9.62890625 Z " fill="#114D84" transform="translate(159.06640625,72.37109375)"/>
<path d="M0 0 C1.32 0 2.64 0 4 0 C4 1.65 4 3.3 4 5 C4.721875 5.061875 5.44375 5.12375 6.1875 5.1875 C10.03599401 6.29928716 11.52822622 7.86017925 14 11 C14.96121104 13.67553588 15.47573922 16.18805582 16 19 C14.68 19.33 13.36 19.66 12 20 C11.07226562 17.02148438 11.07226562 17.02148438 10.14453125 14.04296875 C8.85968347 11.35296072 8.85968347 11.35296072 4 9 C4 15.6 4 22.2 4 29 C5.98 29.33 7.96 29.66 10 30 C12.99758241 32.37812951 14.79244819 35.37734456 16 39 C16.47678962 45.43665988 15.1684356 48.39787728 11.125 53.25 C8.717807 55.23239423 7.06502278 55.65944191 4 56 C3.505 58.475 3.505 58.475 3 61 C2.01 61 1.02 61 0 61 C0 59.35 0 57.7 0 56 C-0.9075 55.773125 -1.815 55.54625 -2.75 55.3125 C-7.0381147 53.58076137 -8.95989786 51.08020427 -11 47 C-11.04022391 44.6670134 -11.04320247 42.33293334 -11 40 C-10.01 40 -9.02 40 -8 40 C-7.75765625 40.62648437 -7.5153125 41.25296875 -7.265625 41.8984375 C-6.93046875 42.71570313 -6.5953125 43.53296875 -6.25 44.375 C-5.92515625 45.18710938 -5.6003125 45.99921875 -5.265625 46.8359375 C-3.99743409 49.45654153 -3.99743409 49.45654153 0 51 C0 44.73 0 38.46 0 32 C-1.98 31.34 -3.96 30.68 -6 30 C-10.14746194 26.40553298 -11.83235162 24.22134107 -12.25 18.6875 C-11.97084473 14.56995976 -11.2830626 12.4245939 -9 9 C-3.94736842 5 -3.94736842 5 0 5 C0 3.35 0 1.7 0 0 Z M-5.125 10.875 C-7.55906631 13.63360848 -7.96131343 14.58992231 -8.3125 18.3125 C-7.94887565 22.60326735 -7.0975514 24.07453479 -4 27 C-2.68 27.33 -1.36 27.66 0 28 C0 21.73 0 15.46 0 9 C-3.09740541 8.66918918 -3.09740541 8.66918918 -5.125 10.875 Z M4 32 C4 38.6 4 45.2 4 52 C9.91731018 49.66151858 9.91731018 49.66151858 12 46 C12.71596791 40.03023479 12.71596791 40.03023479 9.6875 35.0625 C7.11753287 32.85767219 7.11753287 32.85767219 4 32 Z " fill="#114C85" transform="translate(125,82)"/>
<path d="M0 0 C3.35233474 3.44055407 5.73975915 6.81397688 6.3125 11.625 C6.209375 12.40875 6.10625 13.1925 6 14 C2.31884463 16.45410358 0.34706402 16.23287843 -4 16 C-4.99 15.67 -5.98 15.34 -7 15 C-7.33 14.01 -7.66 13.02 -8 12 C-10.50447516 10.78130071 -10.50447516 10.78130071 -13 10 C-12.1028125 9.6596875 -12.1028125 9.6596875 -11.1875 9.3125 C-8.43648112 7.66188867 -7.47515363 5.8027919 -6 3 C-4.35 3.66 -2.7 4.32 -1 5 C-1 4.01 -1 3.02 -1 2 C-1.66 2 -2.32 2 -3 2 C-3 1.34 -3 0.68 -3 0 C-10.34197548 -1.33490463 -15.97314466 -0.34228511 -23 2 C-23 2.66 -23 3.32 -23 4 C-24.32 3.67 -25.64 3.34 -27 3 C-19.0674456 -3.99931271 -9.2709662 -5.19174107 0 0 Z " fill="#7C1F7B" transform="translate(486,76)"/>
<path d="M0 0 C3.375 0.6875 3.375 0.6875 4.375 1.6875 C4.61380597 9.20988806 4.61380597 9.20988806 3.375 11.6875 C1.91757537 11.76846803 0.45887193 11.82667774 -1 11.875 C-1.81210937 11.90980469 -2.62421875 11.94460937 -3.4609375 11.98046875 C-4.17507813 11.88378906 -4.88921875 11.78710938 -5.625 11.6875 C-7.625 8.6875 -7.625 8.6875 -7.4375 5.125 C-6.28747225 0.25949798 -4.92537313 -0.42460113 0 0 Z " fill="#70296F" transform="translate(564.625,138.3125)"/>
<path d="M0 0 C0.66 0 1.32 0 2 0 C3.85131483 3.92857754 4.22004943 6.98775112 4.125 11.3125 C4.10695313 12.38113281 4.08890625 13.44976562 4.0703125 14.55078125 C4.03550781 15.76314453 4.03550781 15.76314453 4 17 C1.36 17 -1.28 17 -4 17 C-5.44018013 14.71265509 -6.03361886 13.41463256 -5.8125 10.6875 C-4.79290892 7.31500643 -3.44862407 4.21216643 -2 1 C-1.34 1 -0.68 1 0 1 C0 0.67 0 0.34 0 0 Z " fill="#7F1B7F" transform="translate(539,132)"/>
<path d="M0 0 C0.66 0.33 1.32 0.66 2 1 C3.87056791 1.2275015 5.74685958 1.40962811 7.625 1.5625 C8.62789062 1.64628906 9.63078125 1.73007813 10.6640625 1.81640625 C11.43492187 1.87699219 12.20578125 1.93757813 13 2 C12.67 2.66 12.34 3.32 12 4 C8.37 4 4.74 4 1 4 C1 9.94 1 15.88 1 22 C6.28 22 11.56 22 17 22 C19.04723881 27.11809703 19.01622308 28.81726228 18 34 C17.67 34 17.34 34 17 34 C16.67 31.03 16.34 28.06 16 25 C10.72 25 5.44 25 0 25 C-0.90375261 22.28874217 -1.12840471 20.69619541 -1.1328125 17.91015625 C-1.13410156 17.12576172 -1.13539063 16.34136719 -1.13671875 15.53320312 C-1.13285156 14.71787109 -1.12898437 13.90253906 -1.125 13.0625 C-1.12886719 12.25103516 -1.13273438 11.43957031 -1.13671875 10.60351562 C-1.13542969 9.81783203 -1.13414062 9.03214844 -1.1328125 8.22265625 C-1.13168457 7.50859619 -1.13055664 6.79453613 -1.12939453 6.05883789 C-0.99573643 3.93216104 -0.57960342 2.04645477 0 0 Z " fill="#712771" transform="translate(222,115)"/>
<path d="M0 0 C0.66 0 1.32 0 2 0 C2.12117188 1.07378906 2.24234375 2.14757812 2.3671875 3.25390625 C2.53615615 4.69013975 2.70544404 6.12633572 2.875 7.5625 C2.95363281 8.26697266 3.03226563 8.97144531 3.11328125 9.69726562 C3.66633903 14.3131709 4.61195836 18.56176603 6 23 C5.34 23 4.68 23 4 23 C4 27.29 4 31.58 4 36 C3.34 36 2.68 36 2 36 C2 38.64 2 41.28 2 44 C1.67 44 1.34 44 1 44 C1 37.4 1 30.8 1 24 C-0.98 23.34 -2.96 22.68 -5 22 C-5.33 21.01 -5.66 20.02 -6 19 C-3.69 19.33 -1.38 19.66 1 20 C0.67 13.4 0.34 6.8 0 0 Z " fill="#135898" transform="translate(124,90)"/>
<path d="M0 0 C0.99 0 1.98 0 3 0 C3.86772029 2.07772471 4.71873619 4.16243177 5.5625 6.25 C6.03816406 7.41015625 6.51382812 8.5703125 7.00390625 9.765625 C8 13 8 13 7 17 C5.35 12.71 3.7 8.42 2 4 C1.21625 5.8975 0.4325 7.795 -0.375 9.75 C-1.81239108 13.22999945 -3.26400675 16.6578074 -5 20 C-7.64 20 -10.28 20 -13 20 C-12.67 19.34 -12.34 18.68 -12 18 C-9.69 18 -7.38 18 -5 18 C-5 15.69 -5 13.38 -5 11 C-6.65 11.33 -8.3 11.66 -10 12 C-7.25 6.125 -7.25 6.125 -5 5 C-4.67 4.34 -4.34 3.68 -4 3 C-3.67 3.33 -3.34 3.66 -3 4 C-2.67 3.34 -2.34 2.68 -2 2 C-1.34 2 -0.68 2 0 2 C0 1.34 0 0.68 0 0 Z " fill="#762274" transform="translate(271,130)"/>
<path d="M0 0 C0 1.65 0 3.3 0 5 C-2 3.625 -2 3.625 -4 2 C-4 1.34 -4 0.68 -4 0 C-5.43791516 0.14168137 -6.8753237 0.28851043 -8.3125 0.4375 C-9.11300781 0.51871094 -9.91351562 0.59992188 -10.73828125 0.68359375 C-13.16087179 0.95265693 -13.16087179 0.95265693 -16 2 C-16.66 1.67 -17.32 1.34 -18 1 C-18 2.32 -18 3.64 -18 5 C-17.34 5 -16.68 5 -16 5 C-17.12451727 7.9719385 -18.22293791 10.33440687 -20 13 C-20.45139459 15.0492094 -20.45139459 15.0492094 -20.625 17.1875 C-20.74875 18.445625 -20.8725 19.70375 -21 21 C-21.66 21 -22.32 21 -23 21 C-22.29411026 13.94110263 -21.21786614 6.98795036 -20 0 C-13.76499208 -2.35544744 -6.15301599 -3.07650799 0 0 Z " fill="#73246F" transform="translate(534,75)"/>
<path d="M0 0 C1 2 1 2 0.9375 4.5 C0.71706155 7.17653739 0.71706155 7.17653739 3 9 C2.34 9 1.68 9 1 9 C1 10.98 1 12.96 1 15 C0.67 15 0.34 15 0 15 C-0.33 12.03 -0.66 9.06 -1 6 C-4.96 6 -8.92 6 -13 6 C-13.12117187 6.91523438 -13.24234375 7.83046875 -13.3671875 8.7734375 C-13.53476562 9.96195313 -13.70234375 11.15046875 -13.875 12.375 C-14.03742187 13.55835938 -14.19984375 14.74171875 -14.3671875 15.9609375 C-15 19 -15 19 -17 21 C-19.68839385 21.26991906 -22.29141936 21.08737357 -25 21 C-25 20.67 -25 20.34 -25 20 C-22.69 20 -20.38 20 -18 20 C-17.84144531 18.94039062 -17.68289063 17.88078125 -17.51953125 16.7890625 C-17.2850345 15.40084177 -17.04929233 14.01283101 -16.8125 12.625 C-16.71130859 11.92632812 -16.61011719 11.22765625 -16.50585938 10.5078125 C-16.14453125 8.4765625 -16.14453125 8.4765625 -15 5 C-11.83728858 3.03818719 -10.12711287 2.9978084 -6.375 3.0625 C-3.03654719 3.33684514 -3.03654719 3.33684514 -1.0625 1.5 C-0.5365625 0.7575 -0.5365625 0.7575 0 0 Z " fill="#702870" transform="translate(531,129)"/>
<path d="M0 0 C3.96 0 7.92 0 12 0 C13.17673198 2.35346396 13.16623866 3.8806033 13.1875 6.5 C13.20167969 7.2940625 13.21585937 8.088125 13.23046875 8.90625 C13 11 13 11 11 13 C7.31975395 13.27629475 3.69505443 13.0859315 0 13 C0 18.94 0 24.88 0 31 C-0.33 31 -0.66 31 -1 31 C-1.02888514 27.85418577 -1.04675923 24.70840531 -1.0625 21.5625 C-1.07087891 20.66466797 -1.07925781 19.76683594 -1.08789062 18.84179688 C-1.09111328 17.98779297 -1.09433594 17.13378906 -1.09765625 16.25390625 C-1.10551147 15.06776733 -1.10551147 15.06776733 -1.11352539 13.85766602 C-1 12 -1 12 0 11 C1.68183948 10.76712992 3.3712416 10.58735834 5.0625 10.4375 C5.98160156 10.35371094 6.90070313 10.26992187 7.84765625 10.18359375 C8.55792969 10.12300781 9.26820313 10.06242187 10 10 C10.33 7.36 10.66 4.72 11 2 C7.7 2 4.4 2 1 2 C0.67 1.34 0.34 0.68 0 0 Z " fill="#742974" transform="translate(370,106)"/>
<path d="M0 0 C0 0.66 0 1.32 0 2 C-5.58500168 4.35207285 -10.79596481 4.33286264 -16.75 4.3125 C-18.18666016 4.33666992 -18.18666016 4.33666992 -19.65234375 4.36132812 C-21.02326172 4.36229492 -21.02326172 4.36229492 -22.421875 4.36328125 C-23.66855957 4.36775269 -23.66855957 4.36775269 -24.94042969 4.37231445 C-25.62008789 4.24945068 -26.29974609 4.12658691 -27 4 C-27.66 3.01 -28.32 2.02 -29 1 C-24.54168888 0.83273548 -20.08334759 0.66628917 -15.625 0.5 C-14.35398437 0.45230469 -13.08296875 0.40460938 -11.7734375 0.35546875 C-9.95585937 0.28779297 -9.95585937 0.28779297 -8.1015625 0.21875 C-6.42054443 0.1559082 -6.42054443 0.1559082 -4.70556641 0.09179688 C-3.13764805 0.03859914 -1.56882057 0 0 0 Z " fill="#094B8C" transform="translate(142,164)"/>
<path d="M0 0 C0.66 0 1.32 0 2 0 C2.33773438 0.83144531 2.67546875 1.66289063 3.0234375 2.51953125 C3.46945312 3.60621094 3.91546875 4.69289063 4.375 5.8125 C4.81585938 6.89144531 5.25671875 7.97039062 5.7109375 9.08203125 C6.9479119 12.10730112 6.9479119 12.10730112 9 15 C8.625 17.1875 8.625 17.1875 8 19 C8.66 19.33 9.32 19.66 10 20 C9.34 20 8.68 20 8 20 C6.3279782 23.1632845 5.07778864 26.3821918 3.875 29.75 C3.52179688 30.73484375 3.16859375 31.7196875 2.8046875 32.734375 C2.40636719 33.85585937 2.40636719 33.85585937 2 35 C1.34 35 0.68 35 0 35 C0.45712238 33.45797384 0.91576347 31.91639786 1.375 30.375 C1.64570313 29.45847656 1.91640625 28.54195312 2.1953125 27.59765625 C2.80084672 25.64289772 3.50288491 23.71764348 4.25 21.8125 C6.21081979 14.45942579 2.43509348 6.89754387 0 0 Z " fill="#752274" transform="translate(259,96)"/>
<path d="M0 0 C4 4.1 4 4.1 4 7 C3.34 7 2.68 7 2 7 C1 5.33333333 0 3.66666667 -1 2 C-1.66 2 -2.32 2 -3 2 C-3 1.34 -3 0.68 -3 0 C-10.34197548 -1.33490463 -15.97314466 -0.34228511 -23 2 C-23 2.66 -23 3.32 -23 4 C-24.32 3.67 -25.64 3.34 -27 3 C-19.07696072 -3.99091701 -9.26056771 -5.20394734 0 0 Z " fill="#70276E" transform="translate(486,76)"/>
<path d="M0 0 C1.31581055 -0.0309375 1.31581055 -0.0309375 2.65820312 -0.0625 C10.06692251 -0.10683041 15.38580433 1.37657564 21.1875 6.25 C20.8575 6.91 20.5275 7.57 20.1875 8.25 C18.49479167 7.2734375 16.80208333 6.296875 15.109375 5.3203125 C14.47515625 4.96710938 13.8409375 4.61390625 13.1875 4.25 C12.62675781 3.88003906 12.06601562 3.51007813 11.48828125 3.12890625 C7.91511656 1.7639452 4.41350607 2.00175602 0.625 2.0625 C-0.14263672 2.06314453 -0.91027344 2.06378906 -1.70117188 2.06445312 C-7.58905513 1.97142019 -7.58905513 1.97142019 -12.5 4.8125 C-12.933125 5.286875 -13.36625 5.76125 -13.8125 6.25 C-14.1425 5.26 -14.4725 4.27 -14.8125 3.25 C-13.8125 1.25 -13.8125 1.25 -12.0324707 0.63769531 C-8.03956652 -0.05962481 -4.04377541 0.02345918 0 0 Z " fill="#6D2B6B" transform="translate(319.8125,72.75)"/>
<path d="M0 0 C2.62561109 -0.08074203 5.24875676 -0.1403623 7.875 -0.1875 C8.99455078 -0.22520508 8.99455078 -0.22520508 10.13671875 -0.26367188 C12.3046875 -0.29296875 12.3046875 -0.29296875 16 0 C18.45410358 3.68115537 18.23287843 5.65293598 18 10 C17.67 10.99 17.34 11.98 17 13 C16.01 13 15.02 13 14 13 C14.99 10.03 15.98 7.06 17 4 C13.53287889 2.84429296 10.4585044 2.67164707 6.8125 2.4375 C5.54019531 2.35371094 4.26789063 2.26992187 2.95703125 2.18359375 C1.98121094 2.12300781 1.00539063 2.06242188 0 2 C0 1.34 0 0.68 0 0 Z " fill="#712D72" transform="translate(370,137)"/>
<path d="M0 0 C5.94 0 11.88 0 18 0 C17.67 0.99 17.34 1.98 17 3 C11.72 3 6.44 3 1 3 C0.67 2.01 0.34 1.02 0 0 Z " fill="#0C4E8C" transform="translate(118,159)"/>
<path d="M0 0 C1.15242187 0.00902344 2.30484375 0.01804688 3.4921875 0.02734375 C4.36101562 0.03894531 5.22984375 0.05054688 6.125 0.0625 C6.455 1.0525 6.785 2.0425 7.125 3.0625 C4.54138482 3.11657567 1.95890745 3.156207 -0.625 3.1875 C-1.35460937 3.20425781 -2.08421875 3.22101563 -2.8359375 3.23828125 C-6.6794624 3.27322239 -9.62106772 3.23749684 -12.875 1.0625 C-8.52167264 0.22226812 -4.43057481 -0.04520995 0 0 Z " fill="#0E508D" transform="translate(127.875,61.9375)"/>
<path d="M0 0 C1.9375 0.375 1.9375 0.375 4 1 C5.4783226 3.95664519 5.06032783 6.74229737 5 10 C3.02 10 1.04 10 -1 10 C-0.690625 8.824375 -0.690625 8.824375 -0.375 7.625 C-0.25125 6.75875 -0.1275 5.8925 0 5 C-0.66 4.34 -1.32 3.68 -2 3 C-1.34 2.01 -0.68 1.02 0 0 Z " fill="#801B81" transform="translate(561,139)"/>
<path d="M0 0 C1.98 0 3.96 0 6 0 C6 0.66 6 1.32 6 2 C6.99 2 7.98 2 9 2 C9 3.65 9 5.3 9 7 C8.01 6.01 7.02 5.02 6 4 C5.21625 4.495 4.4325 4.99 3.625 5.5 C1 7 1 7 -1 7 C-1.33 5.35 -1.66 3.7 -2 2 C-1.34 2 -0.68 2 0 2 C0 1.34 0 0.68 0 0 Z " fill="#821A83" transform="translate(281,75)"/>
<path d="M0 0 C0.99 0.99 1.98 1.98 3 3 C2.34 5.31 1.68 7.62 1 10 C0.731875 9.38125 0.46375 8.7625 0.1875 8.125 C-0.95556848 5.7004767 -0.95556848 5.7004767 -4 4 C-6.50896686 3.54398739 -6.50896686 3.54398739 -9.1875 3.375 C-10.08855469 3.30023438 -10.98960937 3.22546875 -11.91796875 3.1484375 C-12.60503906 3.09945312 -13.29210937 3.05046875 -14 3 C-12 1 -12 1 -9.43359375 0.83984375 C-8.44488281 0.87207031 -7.45617187 0.90429688 -6.4375 0.9375 C-4.62569047 0.99168936 -2.81250532 1.02036523 -1 1 C-0.67 0.67 -0.34 0.34 0 0 Z " fill="#732171" transform="translate(332,83)"/>
<path d="M0 0 C3.5 -0.375 3.5 -0.375 7 0 C7.66 0.99 8.32 1.98 9 3 C8.01 3 7.02 3 6 3 C5.67 3.99 5.34 4.98 5 6 C4.34 5.67 3.68 5.34 3 5 C2.01 5 1.02 5 0 5 C-0.66 4.34 -1.32 3.68 -2 3 C-1.34 2.01 -0.68 1.02 0 0 Z " fill="#811B82" transform="translate(256,75)"/>
<path d="M0 0 C0.33 0 0.66 0 1 0 C1.02688151 1.64574566 1.04634123 3.29161413 1.0625 4.9375 C1.07410156 5.85402344 1.08570313 6.77054687 1.09765625 7.71484375 C1 10 1 10 0 11 C-2.69654854 11.07319621 -5.36691458 11.09242537 -8.0625 11.0625 C-9.20041992 11.05573242 -9.20041992 11.05573242 -10.36132812 11.04882812 C-12.24091871 11.0370068 -14.12046899 11.01907078 -16 11 C-16 10.67 -16 10.34 -16 10 C-15.16855469 9.96261719 -14.33710938 9.92523438 -13.48046875 9.88671875 C-11.85044922 9.78810547 -11.85044922 9.78810547 -10.1875 9.6875 C-9.10855469 9.62949219 -8.02960938 9.57148437 -6.91796875 9.51171875 C-4.02449209 9.22513125 -4.02449209 9.22513125 -2.15625 7.65625 C-0.47609736 5.24954487 -0.31931155 2.87380397 0 0 Z " fill="#762075" transform="translate(239,75)"/>
<path d="M0 0 C3.38484979 2.61556575 4.38316444 5.91612322 5 10 C5.15524967 14.00644297 5.11843429 17.99297319 5 22 C4.67 22 4.34 22 4 22 C3.87882812 21.20335938 3.75765625 20.40671875 3.6328125 19.5859375 C2.7794613 14.19013224 1.80839937 9.16685534 0 4 C0 2.68 0 1.36 0 0 Z " fill="#73286F" transform="translate(341,81)"/>
<path d="M0 0 C1.98 0.66 3.96 1.32 6 2 C5.79375 2.9075 5.5875 3.815 5.375 4.75 C4.9872755 8.11027897 5.19588033 9.24075815 7 12 C6.34 12.66 5.68 13.32 5 14 C4.16235732 12.04350603 3.33000941 10.08474444 2.5 8.125 C2.0359375 7.03445312 1.571875 5.94390625 1.09375 4.8203125 C0 2 0 2 0 0 Z " fill="#742275" transform="translate(417,114)"/>
<path d="M0 0 C7.38461538 0.49230769 7.38461538 0.49230769 10.5 3.0625 C10.995 3.701875 11.49 4.34125 12 5 C11.34 6.32 10.68 7.64 10 9 C10 7.35 10 5.7 10 4 C8.63875 3.7834375 8.63875 3.7834375 7.25 3.5625 C4.78523044 3.13590527 2.41152893 2.64925779 0 2 C0 2.66 0 3.32 0 4 C-0.66 3.67 -1.32 3.34 -2 3 C-1.34 2.01 -0.68 1.02 0 0 Z " fill="#6C276B" transform="translate(281,73)"/>
<path d="M0 0 C1.875 0.125 1.875 0.125 4 1 C5.25 4.0625 5.25 4.0625 6 7 C9.34252724 7.07427838 11.8035914 7.06546953 15 6 C14.67 6.99 14.34 7.98 14 9 C11.4375 10.1875 11.4375 10.1875 9 11 C5.99932257 8.15725296 3.69242127 5.77540131 2 2 C1.34 1.34 0.68 0.68 0 0 Z " fill="#72266F" transform="translate(464,129)"/>
<path d="M0 0 C0.66 0.33 1.32 0.66 2 1 C2 1.99 2 2.98 2 4 C2.99 3.67 3.98 3.34 5 3 C5 6.90838866 3.49432124 8.11594107 1 11 C-0.59555725 7.50971852 -1.32049797 4.84597567 -1 1 C-0.67 0.67 -0.34 0.34 0 0 Z " fill="#732472" transform="translate(254,75)"/>
<path d="M0 0 C0.33 1.32 0.66 2.64 1 4 C3.97 4.495 3.97 4.495 7 5 C7 5.33 7 5.66 7 6 C3.37 6 -0.26 6 -4 6 C-4.33 4.68 -4.66 3.36 -5 2 C-3.68 2.33 -2.36 2.66 -1 3 C-0.67 2.01 -0.34 1.02 0 0 Z " fill="#752374" transform="translate(310,144)"/>
<path d="M0 0 C0.99 0 1.98 0 3 0 C2.67 0.99 2.34 1.98 2 3 C1.9314505 4.89470816 1.91519628 6.7916834 1.9375 8.6875 C1.94652344 9.68136719 1.95554687 10.67523438 1.96484375 11.69921875 C1.97644531 12.45847656 1.98804688 13.21773437 2 14 C1.01 13.67 0.02 13.34 -1 13 C-0.67 8.71 -0.34 4.42 0 0 Z " fill="#6D286D" transform="translate(504,135)"/>
<path d="M0 0 C1.9375 0.75 1.9375 0.75 4 2 C4.75 4.125 4.75 4.125 5 6 C5.99 5.67 6.98 5.34 8 5 C7.67 6.32 7.34 7.64 7 9 C6.01 9 5.02 9 4 9 C4 7.35 4 5.7 4 4 C2.02 3.34 0.04 2.68 -2 2 C-1.34 1.34 -0.68 0.68 0 0 Z " fill="#1A4F7E" transform="translate(121,134)"/>
<path d="M0 0 C-0.33 0.66 -0.66 1.32 -1 2 C-2.32 2 -3.64 2 -5 2 C-5.33 2.99 -5.66 3.98 -6 5 C-6.99 4.67 -7.98 4.34 -9 4 C-8 1 -8 1 -6.1875 -0.25 C-3.66056586 -1.11637742 -2.47778006 -0.88492145 0 0 Z " fill="#851985" transform="translate(337,107)"/>
<path d="M0 0 C1.0625 1.8125 1.0625 1.8125 2 4 C1.67 4.99 1.34 5.98 1 7 C0.649375 6.360625 0.29875 5.72125 -0.0625 5.0625 C-2.77184206 2.17836168 -5.15858911 2.2899178 -9 2 C-5.5647952 -0.29013653 -4.014669 -0.17842973 0 0 Z " fill="#71296D" transform="translate(265,73)"/>
<path d="M0 0 C3.3 0.33 6.6 0.66 10 1 C9.67 1.66 9.34 2.32 9 3 C6.03 3 3.06 3 0 3 C0 2.01 0 1.02 0 0 Z " fill="#0B4E8E" transform="translate(117,56)"/>
<path d="M0 0 C0.33 0 0.66 0 1 0 C1.48828125 2.01822917 1.9765625 4.03645833 2.46484375 6.0546875 C2.94846992 8.0585657 2.94846992 8.0585657 4 10 C3.360625 10.12375 2.72125 10.2475 2.0625 10.375 C1.381875 10.58125 0.70125 10.7875 0 11 C-0.33 11.66 -0.66 12.32 -1 13 C-1.66 12.34 -2.32 11.68 -3 11 C-2.34 11 -1.68 11 -1 11 C0.17571451 7.32589215 0.07366746 3.83070817 0 0 Z " fill="#762571" transform="translate(468,90)"/>
<path d="M0 0 C0.33 0.66 0.66 1.32 1 2 C0.06553465 4.03144641 -0.93224776 6.03533587 -2 8 C-2.33 7.34 -2.66 6.68 -3 6 C-3.99 6.33 -4.98 6.66 -6 7 C-5.34 5.02 -4.68 3.04 -4 1 C-3.67 1.66 -3.34 2.32 -3 3 C-2.34 3 -1.68 3 -1 3 C-0.67 2.01 -0.34 1.02 0 0 Z " fill="#1D4E81" transform="translate(179,132)"/>
<path d="M0 0 C0.99 0 1.98 0 3 0 C3.25 7.5 3.25 7.5 1 12 C0.67 8.04 0.34 4.08 0 0 Z " fill="#0A4A8B" transform="translate(137,118)"/>
<path d="M0 0 C1.32 0 2.64 0 4 0 C4 1.65 4 3.3 4 5 C4.99 5.33 5.98 5.66 7 6 C5.68 6 4.36 6 3 6 C2.67 5.01 2.34 4.02 2 3 C1.67 3.99 1.34 4.98 1 6 C-0.32 5.67 -1.64 5.34 -3 5 C-2.01 5 -1.02 5 0 5 C0 3.35 0 1.7 0 0 Z " fill="#1C4F81" transform="translate(125,82)"/>
<path d="M0 0 C0.66 0.33 1.32 0.66 2 1 C2.75 3.9375 2.75 3.9375 3 7 C2.34 7.66 1.68 8.32 1 9 C0.34 8.34 -0.32 7.68 -1 7 C-0.625 3.375 -0.625 3.375 0 0 Z " fill="#762074" transform="translate(255,140)"/>
<path d="M0 0 C0.99 0.33 1.98 0.66 3 1 C1.76055724 1.86941494 0.50792941 2.72005457 -0.75 3.5625 C-1.44609375 4.03816406 -2.1421875 4.51382813 -2.859375 5.00390625 C-5 6 -5 6 -7.265625 5.65234375 C-7.83796875 5.43707031 -8.4103125 5.22179687 -9 5 C-8.01 5 -7.02 5 -6 5 C-6 4.34 -6 3.68 -6 3 C-5.195625 2.690625 -4.39125 2.38125 -3.5625 2.0625 C-1.10919595 1.23664655 -1.10919595 1.23664655 0 0 Z " fill="#6E2A6C" transform="translate(485,144)"/>
<path d="M0 0 C0.66 0 1.32 0 2 0 C2 1.32 2 2.64 2 4 C2.33 4.66 2.66 5.32 3 6 C2.01 6.99 1.02 7.98 0 9 C-1.36623674 6.26752652 -1.128426 4.01801098 -1 1 C-0.67 0.67 -0.34 0.34 0 0 Z " fill="#762076" transform="translate(559,139)"/>
<path d="M0 0 C0.99 0 1.98 0 3 0 C2.125 4.75 2.125 4.75 1 7 C0.34 7 -0.32 7 -1 7 C-0.67 4.69 -0.34 2.38 0 0 Z " fill="#0B4D90" transform="translate(177,128)"/>
<path d="M0 0 C2.04795423 1.9626228 2.94976638 3.4277307 3.19921875 6.26953125 C3.18858877 8.51954383 3.12958525 10.75385562 3 13 C2.34 12.67 1.68 12.34 1 12 C0.32585108 7.88769156 0 4.16980357 0 0 Z " fill="#762375" transform="translate(489,120)"/>
<path d="M0 0 C3.40312738 1.05875074 6.01353231 2.00902154 9 4 C9 4.66 9 5.32 9 6 C4.64464931 4.83857315 2.35380297 3.92300495 0 0 Z " fill="#6D2470" transform="translate(461,144)"/>
<path d="M0 0 C0.66 0.33 1.32 0.66 2 1 C2 2.32 2 3.64 2 5 C1.34 5 0.68 5 0 5 C-0.33 5.66 -0.66 6.32 -1 7 C-1 6.34 -1 5.68 -1 5 C-1.66 4.67 -2.32 4.34 -3 4 C-2.67 3.01 -2.34 2.02 -2 1 C-1.34 0.67 -0.68 0.34 0 0 Z " fill="#851985" transform="translate(516,129)"/>
<path d="M0 0 C3.83206182 0.41427695 6.08025204 1.51280729 9 4 C8.67 4.66 8.34 5.32 8 6 C6.2421875 4.99088542 4.484375 3.98177083 2.7265625 2.97265625 C1.50201525 2.28280949 0.25710923 1.62855462 -1 1 C-0.67 0.67 -0.34 0.34 0 0 Z " fill="#732672" transform="translate(332,75)"/>
<path d="M0 0 C1.5 1.375 1.5 1.375 3 3 C3 3.66 3 4.32 3 5 C5.31 5 7.62 5 10 5 C10 5.33 10 5.66 10 6 C3.9453125 6.1953125 3.9453125 6.1953125 2 6 C1.34 5.34 0.68 4.68 0 4 C0 2.68 0 1.36 0 0 Z " fill="#722C6F" transform="translate(532,144)"/>
<path d="M0 0 C0.66 0 1.32 0 2 0 C1.34 2.97 0.68 5.94 0 9 C-0.33 9 -0.66 9 -1 9 C-1.625 5.625 -1.625 5.625 -2 2 C-1.34 1.34 -0.68 0.68 0 0 Z " fill="#6E246D" transform="translate(457,129)"/>
<path d="M0 0 C0.66 0 1.32 0 2 0 C2.125 6.625 2.125 6.625 1 10 C0.01 10 -0.98 10 -2 10 C-1.67 9.46375 -1.34 8.9275 -1 8.375 C0.22699204 5.4608939 0.14233286 3.13132292 0 0 Z " fill="#682866" transform="translate(386,140)"/>
<path d="M0 0 C2.475 0.99 2.475 0.99 5 2 C4.67 3.98 4.34 5.96 4 8 C1.53721199 5.53721199 1.00228745 3.29323018 0 0 Z " fill="#782471" transform="translate(423,130)"/>
<path d="M0 0 C1.65 1.65 3.3 3.3 5 5 C4.67 5.66 4.34 6.32 4 7 C2.35 6.01 0.7 5.02 -1 4 C-0.67 2.68 -0.34 1.36 0 0 Z " fill="#712473" transform="translate(484,113)"/>
</svg>
